<?xml version="1.0" encoding="UTF-8"?>
<svg xmlns="http://www.w3.org/2000/svg" width="179" height="32" viewBox="0 0 179 32" fill="none">
  <defs>
    <style>
      .cls-1, .cls-2 {
        fill: #fff;
      }

      .cls-3 {
        fill: #6f42c1;
      }

      .cls-2 {
        fill-rule: evenodd;
      }
    </style>
  </defs>
  <path class="cls-3" d="M4.6605,0H134.3765c2.5739,0,4.6605,2.6863,4.6605,6V26c0,3.3137-2.0866,6-4.6605,6H4.6605c-2.5739,0-4.6605-2.6863-4.6605-6V6C0,2.6863,2.0866,0,4.6605,0Z"/>
  <g>
    <g>
      <path class="cls-1" d="M49.8759,21.0342h-3.687V10.6343h3.7173c1.0464,0,1.9468,.2075,2.7017,.6221,.7549,.415,1.3364,1.0098,1.7446,1.7852,.4077,.7754,.6118,1.7031,.6118,2.7827,0,1.0835-.2041,2.0146-.6118,2.793-.4082,.7783-.9922,1.376-1.752,1.792-.7603,.417-1.6685,.625-2.7246,.625Zm-1.4878-1.8838h1.3965c.6499,0,1.1973-.1162,1.6426-.3477,.4453-.2324,.7803-.5928,1.0054-1.082s.3379-1.1211,.3379-1.8965c0-.7686-.1128-1.3965-.3379-1.8838-.2251-.4878-.5591-.8462-1.0029-1.0767-.4434-.23-.9902-.3452-1.6401-.3452h-1.4014v6.6318Z"/>
      <path class="cls-1" d="M60.1029,21.1865c-.8022,0-1.4922-.1631-2.0693-.4902-.5771-.3262-1.0215-.79-1.333-1.3916-.3115-.6006-.4673-1.3125-.4673-2.1357,0-.8013,.1558-1.5054,.4673-2.1113s.751-1.0781,1.3179-1.417c.5669-.3384,1.2329-.5078,1.998-.5078,.5146,0,.9946,.082,1.4399,.2466,.4453,.1641,.8345,.4102,1.168,.7388,.3335,.3281,.5933,.7407,.7793,1.2363,.1865,.4961,.2793,1.0762,.2793,1.7393v.5938h-6.5864v-1.3398h4.5503c0-.3115-.0679-.5874-.2031-.8281-.1353-.2402-.3223-.4292-.561-.5659-.2388-.1372-.5156-.2061-.8306-.2061-.3281,0-.6187,.0757-.8706,.2261-.2524,.1509-.4497,.3521-.5918,.6045-.1421,.252-.2148,.5322-.2183,.8403v1.2739c0,.3867,.0718,.7197,.2158,1.001,.1436,.2812,.3477,.4971,.6118,.6494s.5771,.2285,.9395,.2285c.2402,0,.4604-.0332,.6602-.1016,.1997-.0674,.3706-.1689,.5132-.3047,.1421-.1348,.2505-.3008,.3247-.4971l2.001,.1318c-.1016,.4805-.3091,.8994-.6221,1.2568-.3135,.3574-.7163,.6348-1.2085,.833-.4927,.1982-1.0605,.2969-1.7041,.2969Z"/>
      <path class="cls-1" d="M65.0951,23.959V13.2344h2.1328v1.3101h.0967c.0947-.2095,.2324-.4238,.4136-.6421s.4185-.4014,.7109-.5483c.293-.1475,.6577-.2212,1.0947-.2212,.5684,0,1.0928,.1484,1.5742,.4443,.4805,.2964,.8643,.7417,1.1523,1.3354,.2881,.5942,.4316,1.3384,.4316,2.2319,0,.8701-.1396,1.6035-.4189,2.2012s-.6582,1.0498-1.1377,1.3555c-.4785,.3066-1.0146,.46-1.6069,.46-.4199,0-.7759-.0693-1.0688-.208s-.5322-.3145-.7188-.5254c-.186-.2119-.3281-.4258-.4263-.6426h-.0659v4.1738h-2.1636Zm2.1177-6.8242c0,.4639,.0645,.8682,.1929,1.2129,.1289,.3457,.3149,.6143,.5586,.8047,.2437,.1914,.54,.2871,.8887,.2871,.3521,0,.6499-.0967,.894-.292,.2437-.1943,.4287-.4648,.5557-.8125,.127-.3467,.1904-.7471,.1904-1.2002,0-.4502-.0625-.8467-.1875-1.1885-.126-.3418-.3101-.6094-.5537-.8022-.2437-.1934-.5435-.2896-.8989-.2896-.3521,0-.6489,.0933-.8911,.2793s-.4272,.4502-.5562,.792c-.1284,.3423-.1929,.7451-.1929,1.209Z"/>
      <path class="cls-1" d="M76.3027,10.6343v10.3999h-2.1631V10.6343h2.1631Z"/>
      <path class="cls-1" d="M81.5536,21.1865c-.7891,0-1.4707-.168-2.0439-.5049-.5742-.3369-1.0166-.8076-1.3281-1.4121s-.4678-1.3057-.4678-2.1045c0-.8057,.1562-1.5107,.4678-2.1152,.3115-.604,.7539-1.0747,1.3281-1.4116,.5732-.3369,1.2549-.5054,2.0439-.5054,.7881,0,1.4697,.1685,2.0439,.5054,.5732,.3369,1.0166,.8076,1.3281,1.4116,.3105,.6045,.4668,1.3096,.4668,2.1152,0,.7988-.1562,1.5-.4668,2.1045-.3115,.6045-.7549,1.0752-1.3281,1.4121-.5742,.3369-1.2559,.5049-2.0439,.5049Zm.0098-1.6758c.3584,0,.6582-.1025,.8984-.3076,.2412-.2041,.4229-.4844,.5469-.8398,.123-.3564,.1846-.7607,.1846-1.2139s-.0615-.8579-.1846-1.2134c-.124-.3555-.3057-.6362-.5469-.8428-.2402-.2065-.54-.3101-.8984-.3101-.3623,0-.666,.1035-.9111,.3101-.2461,.2065-.4307,.4873-.5537,.8428-.124,.3555-.1855,.7603-.1855,1.2134s.0615,.8574,.1855,1.2139c.123,.3555,.3076,.6357,.5537,.8398,.2451,.2051,.5488,.3076,.9111,.3076Z"/>
      <path class="cls-1" d="M88.1396,23.959c-.2744,0-.5312-.0205-.7695-.0635-.2383-.042-.4355-.0957-.5918-.1602l.4873-1.6143c.2539,.0781,.4834,.1201,.6885,.127s.3828-.041,.5332-.1426,.2734-.2744,.3682-.5176l.127-.3301-2.7979-8.0234h2.2754l1.6143,5.7275h.0811l1.6309-5.7275h2.29l-3.0322,8.6426c-.1455,.4199-.3428,.7861-.5908,1.0996-.249,.3135-.5635,.5557-.9424,.7266s-.8359,.2559-1.3711,.2559Z"/>
      <path class="cls-1" d="M100.662,16.5254v4.5088h-2.1631v-7.7998h2.0615v1.3765h.0918c.1729-.4536,.4619-.8135,.8682-1.0791,.4062-.2661,.8994-.3989,1.4775-.3989,.542,0,1.0146,.1187,1.417,.3555,.4033,.2373,.7158,.5747,.9395,1.0132s.335,.9604,.335,1.5669v4.9658h-2.1631v-4.5801c.0039-.4775-.1182-.8506-.3652-1.1196-.2471-.2695-.5879-.4038-1.0205-.4038-.292,0-.5479,.0625-.7695,.188-.2217,.125-.3945,.3071-.5186,.5459-.123,.2388-.1865,.5254-.1904,.8608Z"/>
      <path class="cls-1" d="M110.915,21.1865c-.7891,0-1.4707-.168-2.0439-.5049-.5742-.3369-1.0166-.8076-1.3281-1.4121s-.4668-1.3057-.4668-2.1045c0-.8057,.1553-1.5107,.4668-2.1152,.3115-.604,.7539-1.0747,1.3281-1.4116,.5732-.3369,1.2549-.5054,2.0439-.5054s1.4697,.1685,2.0439,.5054,1.0166,.8076,1.3281,1.4116c.3115,.6045,.4668,1.3096,.4668,2.1152,0,.7988-.1553,1.5-.4668,2.1045s-.7539,1.0752-1.3281,1.4121-1.2549,.5049-2.0439,.5049Zm.0098-1.6758c.3594,0,.6592-.1025,.8994-.3076,.2402-.2041,.4219-.4844,.5459-.8398,.123-.3564,.1855-.7607,.1855-1.2139s-.0625-.8579-.1855-1.2134c-.124-.3555-.3057-.6362-.5459-.8428s-.54-.3101-.8994-.3101c-.3623,0-.666,.1035-.9111,.3101s-.4297,.4873-.5537,.8428-.1855,.7603-.1855,1.2134,.0615,.8574,.1855,1.2139c.124,.3555,.3086,.6357,.5537,.8398,.2451,.2051,.5488,.3076,.9111,.3076Z"/>
      <path class="cls-1" d="M117.705,21.0342l-2.123-7.7998h2.1885l1.209,5.2402h.0713l1.2588-5.2402h2.1484l1.2793,5.21h.0664l1.1885-5.21h2.1836l-2.1182,7.7998h-2.29l-1.3408-4.9053h-.0957l-1.3408,4.9053h-2.2852Z"/>
    </g>
    <path class="cls-2" d="M21.9092,21.5347h-3.9226c-.2498,0-.4894-.0975-.6661-.2711l-5.4684-5.3797c-.1765-.1739-.2756-.4096-.2756-.6553v-2.3799c0-.246,.0991-.4818,.2756-.656l7.1256-7.01c.1769-.1735,.4163-.2709,.6661-.2711h8.5875c.2497,0,.4893,.0975,.6661,.2711l3.1395,3.083c.1768,.1738,.2762,.4095,.2763,.6553v2.4271c.0002,.0917-.0274,.1815-.079,.2578-.0517,.0763-.1253,.1359-.2115,.171-.0862,.0351-.181,.0444-.2724,.0264-.0915-.0179-.1755-.0622-.2413-.1272l-3.7802-3.7196c-.0875-.086-.1913-.1542-.3056-.2008-.1142-.0465-.2368-.0704-.3605-.0704h-6.2522c-.2486,.0011-.4866,.0991-.6618,.2725l-5.4769,5.3874c-.1763,.174-.2754,.4096-.2756,.6553v.0763c-.0002,.2455,.0984,.4811,.2742,.6553l3.8176,3.7564c.0875,.086,.1913,.1542,.3056,.2008,.1143,.0465,.2368,.0704,.3605,.0704h1.586c.1238,.0003,.2465-.0235,.3609-.07,.1144-.0466,.2184-.1149,.3059-.2011l2.1774-2.142c.0437-.043,.0956-.0771,.1528-.1005,.0572-.0233,.1184-.0353,.1803-.0353,.0618,0,.123,.012,.1802,.0353,.0571,.0233,.1091,.0575,.1528,.1005l1.3259,1.3064c.0437,.0431,.0784,.0942,.1021,.1503,.0237,.0562,.0359,.1165,.0359,.1773s-.0122,.1211-.0359,.1773c-.0237,.0562-.0584,.1073-.1021,.1503l-3.0035,2.9547c-.1759,.1732-.4144,.271-.6633,.2718Zm.0712-11.0694h3.9226c.2497,0,.4893,.0975,.666,.2711l5.4684,5.3776c.1765,.1739,.2757,.4096,.2756,.6554v2.3819c-.0002,.2457-.0993,.4813-.2756,.6553l-7.1256,7.0107c-.1768,.1735-.4163,.271-.666,.2712H15.6584c-.2497-.0002-.4892-.0976-.6661-.2712l-3.1395-3.0823c-.1768-.1737-.2762-.4095-.2763-.6553v-2.427c-.0006-.0919,.0266-.182,.0782-.2586,.0516-.0767,.1251-.1366,.2114-.1719,.0862-.0354,.1812-.0448,.2729-.0269,.0917,.0179,.1758,.0622,.2418,.1273l3.7774,3.7196c.0879,.0861,.1923,.1543,.3071,.2005,.1148,.0463,.2378,.0698,.3618,.0692h6.2494c.1237,.0002,.2462-.0237,.3605-.0702,.1143-.0465,.2181-.1149,.3056-.2009l5.4768-5.3874c.1763-.174,.2754-.4096,.2756-.6553v-.0763c-.0002-.2457-.0993-.4813-.2756-.6553l-3.8183-3.7564c-.0875-.086-.1914-.1542-.3056-.2007-.1143-.0466-.2368-.0704-.3605-.0704h-1.586c-.1237-.0001-.2462,.0238-.3605,.0703-.1143,.0465-.2182,.1148-.3056,.2009l-2.1773,2.1434c-.0437,.043-.0957,.0772-.1528,.1005-.0571,.0233-.1184,.0353-.1802,.0353-.0619,0-.1231-.012-.1803-.0353-.0571-.0233-.1091-.0575-.1528-.1005l-1.3287-1.3064c-.0437-.0431-.0784-.0942-.1021-.1503-.0237-.0562-.0359-.1165-.0359-.1773s.0122-.1211,.0359-.1773c.0237-.0562,.0584-.1073,.1021-.1503l3.0035-2.9554c.1769-.1735,.4164-.2709,.6661-.2711Z"/>
  </g>
</svg>
