<svg width="770" height="146" viewBox="0 0 770 146" fill="none" xmlns="http://www.w3.org/2000/svg">
<rect x="0.5" y="0.5" width="769" height="145" rx="19.5" fill="#6F42C1" stroke="black"/>
<path d="M540.678 56.6597H527.241C524.361 56.6597 521.947 57.5856 520.262 59.331C518.667 60.9814 517.827 63.2337 517.827 65.8471V78.0484C517.827 80.6387 518.635 82.9813 520.1 84.6433C521.72 86.4951 524.079 87.465 526.898 87.465H533.773C534.801 87.4513 535.805 87.155 536.676 86.6086V92.2497C536.677 92.8653 536.434 93.4561 536 93.893C535.566 94.3298 534.977 94.5771 534.361 94.5807H521.211C520.801 94.5807 520.407 94.7436 520.118 95.0336C519.828 95.3236 519.665 95.7169 519.665 96.127V101.451H534.357C535.595 101.452 536.822 101.209 537.966 100.735C539.111 100.262 540.151 99.5667 541.026 98.6904C541.902 97.8141 542.595 96.7737 543.068 95.6288C543.541 94.4838 543.783 93.2569 543.78 92.0182V59.7522C543.78 59.3454 543.699 58.9427 543.543 58.567C543.387 58.1913 543.159 57.8501 542.87 57.5629C542.582 57.2756 542.24 57.048 541.864 56.893C541.488 56.7381 541.085 56.6588 540.678 56.6597ZM536.662 63.5161V78.6896C536.602 79.1624 536.391 79.6031 536.06 79.9463C535.729 80.2895 535.297 80.5169 534.827 80.5947H527.012C525.928 80.5947 524.928 80.3146 524.928 78.2799V65.8494C524.928 64.1712 525.574 63.5184 527.243 63.5184L536.662 63.5161Z" fill="white"/>
<path d="M574.991 59.0135C573.324 57.5019 570.97 56.6709 568.361 56.6709H560.678C558.074 56.6709 555.722 57.5019 554.053 59.0112C552.227 60.6639 551.262 63.032 551.262 65.8583V77.9971C551.258 79.2346 551.5 80.4605 551.972 81.6043C552.444 82.7482 553.138 83.7875 554.013 84.6625C554.888 85.5375 555.927 86.231 557.071 86.7032C558.215 87.1753 559.441 87.4168 560.678 87.4138H576.588V82.0897C576.588 81.6794 576.425 81.2859 576.135 80.9955C575.845 80.7051 575.452 80.5417 575.041 80.5411H560.69C560.384 80.5451 560.08 80.4881 559.797 80.3734C559.513 80.2587 559.255 80.0886 559.038 79.8731C558.821 79.6575 558.649 79.4009 558.533 79.1181C558.416 78.8354 558.357 78.5322 558.359 78.2263V75.099C558.74 75.2167 559.138 75.276 559.537 75.2749H575.227C577.773 75.2749 577.773 73.143 577.773 72.4416V65.8607C577.778 63.0297 576.812 60.6616 574.991 59.0135ZM570.794 65.7819V68.4555H558.363V65.7819C558.363 64.9162 558.667 63.4672 560.694 63.4672H568.548C569.366 63.4672 569.951 63.6384 570.289 63.9787C570.627 64.319 570.798 64.9347 570.794 65.7819Z" fill="white"/>
<path d="M588.743 56.6832C587.483 56.6832 586.275 57.1836 585.384 58.0744C584.493 58.9652 583.993 60.1734 583.993 61.4331V87.4144H589.548C589.958 87.4144 590.352 87.2515 590.642 86.9615C590.932 86.6716 591.094 86.2782 591.094 85.8681V63.4771H601.048C601.664 63.4759 602.255 63.7188 602.692 64.1527C603.129 64.5867 603.376 65.1761 603.379 65.7919V85.8635C603.379 86.2736 603.542 86.6669 603.832 86.9569C604.122 87.2469 604.515 87.4098 604.925 87.4098H610.481V66.0743C610.479 63.8816 609.717 61.7574 608.324 60.0642C606.931 58.3709 604.993 57.2136 602.842 56.7896C602.455 56.7172 602.062 56.6815 601.668 56.6832H588.743Z" fill="white"/>
<path d="M641.638 59.0135C639.969 57.5019 637.615 56.6709 635.009 56.6709H627.344C624.742 56.6709 622.391 57.5019 620.722 59.0112C618.895 60.6639 617.93 63.032 617.93 65.8583V77.9971C617.927 79.2344 618.168 80.4601 618.64 81.6038C619.112 82.7475 619.806 83.7867 620.68 84.6617C621.555 85.5367 622.594 86.2302 623.738 86.7025C624.881 87.1748 626.107 87.4165 627.344 87.4138H643.254V82.0897C643.254 81.6794 643.091 81.2859 642.801 80.9955C642.511 80.7051 642.118 80.5417 641.708 80.5411H627.344C627.038 80.5454 626.735 80.4886 626.451 80.374C626.167 80.2594 625.909 80.0894 625.692 79.8738C625.475 79.6582 625.303 79.4014 625.187 79.1185C625.07 78.8356 625.011 78.5323 625.013 78.2263V75.099C625.394 75.2165 625.791 75.2758 626.189 75.2749H641.881C644.427 75.2749 644.427 73.143 644.427 72.4416V65.8607C644.423 63.0297 643.46 60.6616 641.638 59.0135ZM625.002 65.7819C625.002 64.9162 625.305 63.4672 627.333 63.4672H635.184C636.004 63.4672 636.59 63.6384 636.928 63.9787C637.265 64.319 637.444 64.9324 637.439 65.7843V68.4579H625.002V65.7819Z" fill="white"/>
<path d="M673.971 64.9971L673.985 64.9786C674.807 64.0078 675.259 62.7782 675.263 61.5064V58.2865C675.26 58.0687 675.214 57.8537 675.127 57.6539C675.04 57.4541 674.914 57.2736 674.757 57.1228C674.6 56.972 674.414 56.854 674.211 56.7756C674.008 56.6972 673.791 56.66 673.573 56.6662H653.809C653.592 56.66 653.375 56.6972 653.172 56.7756C652.968 56.854 652.783 56.972 652.625 57.1228C652.468 57.2736 652.342 57.4541 652.256 57.6539C652.169 57.8537 652.123 58.0687 652.12 58.2865V63.349H666.525L651.925 79.9808L651.911 79.9971C651.091 80.9687 650.64 82.198 650.636 83.4693V85.8465C650.636 86.2566 650.799 86.65 651.089 86.9399C651.379 87.2299 651.772 87.3928 652.182 87.3928H674.122C674.325 87.3928 674.526 87.3528 674.713 87.2751C674.901 87.1974 675.072 87.0835 675.215 86.9399C675.359 86.7964 675.473 86.6259 675.55 86.4383C675.628 86.2507 675.668 86.0496 675.668 85.8465V80.6382H660.187L673.971 64.9971Z" fill="white"/>
<path d="M688.469 56.659H683.061V85.8671C683.061 86.2772 683.224 86.6705 683.514 86.9605C683.804 87.2505 684.197 87.4134 684.608 87.4134H690.163V58.2863C690.161 58.0675 690.115 57.8513 690.029 57.6504C689.942 57.4495 689.816 57.2679 689.658 57.1163C689.5 56.9648 689.314 56.8462 689.11 56.7677C688.905 56.6892 688.687 56.6522 688.469 56.659Z" fill="white"/>
<path d="M688.613 44.5879H683.057V50.4791C683.057 50.8892 683.22 51.2825 683.51 51.5724C683.8 51.8624 684.193 52.0253 684.603 52.0253H690.159V46.1342C690.159 45.7241 689.996 45.3308 689.706 45.0408C689.416 44.7508 689.023 44.5879 688.613 44.5879Z" fill="#00FAA4"/>
<path d="M714.612 56.2662H707.052C705.816 56.2659 704.591 56.5092 703.449 56.9821C702.306 57.4551 701.268 58.1485 700.394 59.0227C699.519 59.897 698.826 60.9349 698.352 62.0772C697.879 63.2196 697.636 64.444 697.636 65.6805V78.391C697.632 79.6285 697.874 80.8544 698.346 81.9982C698.818 83.1421 699.512 84.1814 700.387 85.0564C701.262 85.9314 702.301 86.6249 703.445 87.0971C704.589 87.5692 705.815 87.8107 707.052 87.8076H714.612C717.119 87.8169 719.527 86.8301 721.307 85.0643C723.087 83.2984 724.093 80.8981 724.103 78.391V65.6805C724.092 63.1738 723.086 60.7741 721.306 59.0087C719.527 57.2434 717.119 56.2569 714.612 56.2662ZM714.612 81.0021H707.052C706.742 81.0022 706.434 80.9403 706.148 80.8199C705.862 80.6996 705.603 80.5234 705.386 80.3015C705.168 80.0796 704.998 79.8166 704.884 79.5279C704.77 79.2392 704.714 78.9306 704.721 78.6202V65.4397C704.721 65.1346 704.781 64.8324 704.899 64.5507C705.016 64.2689 705.188 64.0131 705.404 63.798C705.62 63.5829 705.877 63.4126 706.16 63.2971C706.442 63.1816 706.745 63.1231 707.05 63.1249H714.612C715.232 63.1253 715.827 63.3673 716.272 63.7995C716.716 64.2317 716.974 64.8201 716.992 65.4397V78.6063C716.994 78.9201 716.934 79.2311 716.815 79.5216C716.696 79.812 716.521 80.0761 716.3 80.2987C716.079 80.5214 715.816 80.6981 715.526 80.8188C715.237 80.9395 714.926 81.0018 714.612 81.0021Z" fill="white"/>
<path d="M67.0508 91.4904H79.9326C80.7501 91.4874 81.5331 91.1612 82.1109 90.583L91.9742 80.7196C92.1179 80.576 92.2319 80.4055 92.3097 80.2178C92.3875 80.0302 92.4275 79.829 92.4275 79.6259C92.4275 79.4227 92.3875 79.2216 92.3097 79.0339C92.2319 78.8462 92.1179 78.6757 91.9742 78.5321L87.6201 74.171C87.4765 74.0274 87.306 73.9134 87.1183 73.8356C86.9307 73.7578 86.7295 73.7178 86.5264 73.7178C86.3232 73.7178 86.1221 73.7578 85.9344 73.8356C85.7467 73.9134 85.5762 74.0274 85.4326 74.171L78.2822 81.3215C77.9949 81.6093 77.6535 81.8374 77.2777 81.9928C76.9019 82.1481 76.4991 82.2275 76.0924 82.2265H70.8841C70.4779 82.2267 70.0757 82.1469 69.7003 81.9916C69.325 81.8363 68.9839 81.6086 68.6966 81.3215L56.1597 68.7822C55.5823 68.2006 55.2586 67.4142 55.2592 66.5947V66.3401C55.2598 65.5199 55.5853 64.7334 56.1643 64.1526L74.1503 46.1689C74.7258 45.5899 75.5075 45.2627 76.3239 45.2592H96.8561C97.2623 45.259 97.6646 45.3388 98.0399 45.4941C98.4153 45.6494 98.7563 45.8772 99.0436 46.1643L111.458 58.5809C111.674 58.7977 111.95 58.9455 112.25 59.0054C112.551 59.0653 112.862 59.0347 113.145 58.9174C113.428 58.8001 113.67 58.6015 113.839 58.3466C114.009 58.0918 114.1 57.7922 114.099 57.486V49.3842C114.099 48.5635 113.772 47.7767 113.192 47.1967L102.882 36.9051C102.301 36.3256 101.514 36.0001 100.694 36H72.4929C71.6727 36.0006 70.8862 36.3261 70.3054 36.9051L46.9051 60.3054C46.3255 60.8868 46 61.6743 46 62.4952V70.4396C45.9999 71.2599 46.3254 72.0467 46.9051 72.6271L64.8633 90.5853C65.4437 91.165 66.2305 91.4905 67.0508 91.4904Z" fill="white"/>
<path d="M93.0483 54.5386H80.1665C79.3463 54.5392 78.5598 54.8646 77.979 55.4437L68.1156 65.3093C67.9719 65.4529 67.8579 65.6234 67.7802 65.8111C67.7024 65.9988 67.6624 66.1999 67.6624 66.4031C67.6624 66.6062 67.7024 66.8074 67.7802 66.9951C67.8579 67.1827 67.9719 67.3532 68.1156 67.4968L72.479 71.8579C72.6226 72.0016 72.7931 72.1156 72.9808 72.1934C73.1685 72.2711 73.3696 72.3112 73.5728 72.3112C73.7759 72.3112 73.9771 72.2711 74.1647 72.1934C74.3524 72.1156 74.5229 72.0016 74.6665 71.8579L81.8169 64.7029C82.1041 64.4155 82.4451 64.1877 82.8205 64.0324C83.1959 63.8771 83.5982 63.7973 84.0044 63.7978H89.2127C89.6189 63.7976 90.0212 63.8774 90.3965 64.0327C90.7718 64.188 91.1129 64.4157 91.4002 64.7029L103.939 77.2421C104.518 77.823 104.844 78.6095 104.845 79.4296V79.6842C104.844 80.5044 104.518 81.2909 103.939 81.8717L85.9535 99.8554C85.6665 100.143 85.3255 100.371 84.9501 100.526C84.5747 100.682 84.1723 100.761 83.766 100.76H63.243C62.8355 100.763 62.4317 100.684 62.0548 100.529C61.6778 100.375 61.335 100.147 61.0462 99.86L48.6412 87.4435C48.4245 87.2262 48.1481 87.0783 47.8471 87.0186C47.5461 86.9589 47.2341 86.9901 46.9509 87.1082C46.6677 87.2264 46.4261 87.4261 46.2567 87.682C46.0874 87.9379 45.998 88.2384 46 88.5453V96.6471C46.0005 97.4677 46.3269 98.2546 46.9074 98.8346L57.2176 109.124C57.7984 109.703 58.5849 110.028 59.405 110.029H87.6062C88.4264 110.028 89.2129 109.703 89.7937 109.124L113.194 85.7212C113.773 85.1404 114.098 84.3539 114.099 83.5338V75.5824C114.099 74.7621 113.774 73.9753 113.194 73.3949L95.2358 55.4437C94.6554 54.864 93.8686 54.5385 93.0483 54.5386Z" fill="white"/>
<line x1="149.5" x2="149.5" y2="146" stroke="#00FAA4"/>
<path d="M202.756 90.2358V50.9631H216.026C219.107 50.9631 221.625 51.5192 223.581 52.6314C225.55 53.7309 227.007 55.2202 227.953 57.0995C228.899 58.9787 229.372 61.0753 229.372 63.3892C229.372 65.7032 228.899 67.8062 227.953 69.6982C227.02 71.5902 225.575 73.0988 223.619 74.2238C221.663 75.336 219.158 75.8921 216.102 75.8921H206.591V71.6733H215.949C218.058 71.6733 219.752 71.309 221.031 70.5803C222.309 69.8516 223.236 68.8672 223.811 67.6272C224.399 66.3743 224.693 64.9617 224.693 63.3892C224.693 61.8168 224.399 60.4106 223.811 59.1705C223.236 57.9304 222.303 56.9589 221.011 56.2557C219.72 55.5398 218.007 55.1819 215.872 55.1819H207.511V90.2358H202.756ZM248.069 90.8495C245.41 90.8495 243.077 90.2167 241.07 88.951C239.075 87.6854 237.516 85.9148 236.391 83.6392C235.278 81.3637 234.722 78.7046 234.722 75.662C234.722 72.5938 235.278 69.9155 236.391 67.6272C237.516 65.3388 239.075 63.5618 241.07 62.2962C243.077 61.0306 245.41 60.3978 248.069 60.3978C250.728 60.3978 253.055 61.0306 255.049 62.2962C257.056 63.5618 258.616 65.3388 259.728 67.6272C260.853 69.9155 261.415 72.5938 261.415 75.662C261.415 78.7046 260.853 81.3637 259.728 83.6392C258.616 85.9148 257.056 87.6854 255.049 88.951C253.055 90.2167 250.728 90.8495 248.069 90.8495ZM248.069 86.7841C250.089 86.7841 251.751 86.2664 253.055 85.2309C254.359 84.1954 255.324 82.8339 255.95 81.1464C256.577 79.4589 256.89 77.6307 256.89 75.662C256.89 73.6932 256.577 71.8587 255.95 70.1584C255.324 68.4581 254.359 67.0839 253.055 66.0356C251.751 64.9873 250.089 64.4631 248.069 64.4631C246.049 64.4631 244.387 64.9873 243.083 66.0356C241.779 67.0839 240.814 68.4581 240.188 70.1584C239.561 71.8587 239.248 73.6932 239.248 75.662C239.248 77.6307 239.561 79.4589 240.188 81.1464C240.814 82.8339 241.779 84.1954 243.083 85.2309C244.387 86.2664 246.049 86.7841 248.069 86.7841ZM273.995 90.2358L265.021 60.7813H269.776L276.143 83.3324H276.45L282.739 60.7813H287.572L293.785 83.2557H294.092L300.458 60.7813H305.214L296.239 90.2358H291.79L285.347 67.608H284.887L278.444 90.2358H273.995ZM322.544 90.8495C319.706 90.8495 317.258 90.2231 315.2 88.9702C313.154 87.7046 311.575 85.9404 310.463 83.6776C309.364 81.402 308.814 78.7557 308.814 75.7387C308.814 72.7216 309.364 70.0625 310.463 67.7614C311.575 65.4475 313.122 63.6449 315.104 62.3537C317.098 61.0498 319.425 60.3978 322.084 60.3978C323.618 60.3978 325.133 60.6535 326.629 61.1648C328.124 61.6762 329.486 62.5071 330.713 63.6577C331.941 64.7955 332.919 66.304 333.647 68.1833C334.376 70.0625 334.74 72.3765 334.74 75.125V77.0427H312.036V73.1307H330.138C330.138 71.4688 329.806 69.9858 329.141 68.6819C328.489 67.3779 327.556 66.3488 326.341 65.5945C325.139 64.8402 323.72 64.4631 322.084 64.4631C320.281 64.4631 318.722 64.9106 317.405 65.8054C316.101 66.6875 315.097 67.8381 314.394 69.2571C313.691 70.6762 313.34 72.1975 313.34 73.8211V76.429C313.34 78.6535 313.723 80.5391 314.49 82.086C315.27 83.6201 316.35 84.7898 317.731 85.5952C319.112 86.3878 320.716 86.7841 322.544 86.7841C323.733 86.7841 324.807 86.6179 325.766 86.2856C326.737 85.9404 327.575 85.429 328.278 84.7515C328.981 84.0611 329.524 83.2046 329.908 82.1819L334.28 83.4091C333.82 84.8921 333.046 86.1961 331.96 87.3211C330.873 88.4333 329.531 89.3026 327.933 89.929C326.335 90.5427 324.539 90.8495 322.544 90.8495ZM341.624 90.2358V60.7813H345.997V65.2302H346.303C346.84 63.7728 347.812 62.5902 349.218 61.6826C350.624 60.7749 352.21 60.3211 353.974 60.3211C354.306 60.3211 354.722 60.3275 355.22 60.3402C355.719 60.353 356.096 60.3722 356.352 60.3978V65C356.198 64.9617 355.847 64.9042 355.297 64.8275C354.76 64.738 354.191 64.6932 353.59 64.6932C352.159 64.6932 350.88 64.9937 349.755 65.5945C348.643 66.1826 347.761 67.0008 347.109 68.049C346.47 69.0846 346.15 70.2671 346.15 71.5966V90.2358H341.624ZM373.169 90.8495C370.331 90.8495 367.883 90.2231 365.825 88.9702C363.779 87.7046 362.2 85.9404 361.088 83.6776C359.989 81.402 359.439 78.7557 359.439 75.7387C359.439 72.7216 359.989 70.0625 361.088 67.7614C362.2 65.4475 363.747 63.6449 365.729 62.3537C367.723 61.0498 370.05 60.3978 372.709 60.3978C374.243 60.3978 375.758 60.6535 377.254 61.1648C378.749 61.6762 380.111 62.5071 381.338 63.6577C382.566 64.7955 383.544 66.304 384.272 68.1833C385.001 70.0625 385.365 72.3765 385.365 75.125V77.0427H362.661V73.1307H380.763C380.763 71.4688 380.431 69.9858 379.766 68.6819C379.114 67.3779 378.181 66.3488 376.966 65.5945C375.764 64.8402 374.345 64.4631 372.709 64.4631C370.906 64.4631 369.347 64.9106 368.03 65.8054C366.726 66.6875 365.722 67.8381 365.019 69.2571C364.316 70.6762 363.965 72.1975 363.965 73.8211V76.429C363.965 78.6535 364.348 80.5391 365.115 82.086C365.895 83.6201 366.975 84.7898 368.356 85.5952C369.737 86.3878 371.341 86.7841 373.169 86.7841C374.358 86.7841 375.432 86.6179 376.391 86.2856C377.362 85.9404 378.2 85.429 378.903 84.7515C379.606 84.0611 380.149 83.2046 380.533 82.1819L384.905 83.4091C384.445 84.8921 383.671 86.1961 382.585 87.3211C381.498 88.4333 380.156 89.3026 378.558 89.929C376.96 90.5427 375.164 90.8495 373.169 90.8495ZM403.372 90.8495C400.917 90.8495 398.75 90.2294 396.871 88.9894C394.992 87.7366 393.521 85.9723 392.46 83.6968C391.399 81.4084 390.869 78.7046 390.869 75.5853C390.869 72.4915 391.399 69.8069 392.46 67.5313C393.521 65.2557 394.998 63.4979 396.89 62.2579C398.782 61.0178 400.968 60.3978 403.448 60.3978C405.366 60.3978 406.881 60.7174 407.993 61.3566C409.118 61.983 409.975 62.6989 410.563 63.5043C411.164 64.2969 411.63 64.9489 411.963 65.4603H412.346V50.9631H416.872V90.2358H412.499V85.7103H411.963C411.63 86.2472 411.157 86.9248 410.544 87.7429C409.93 88.5483 409.054 89.2706 407.916 89.9098C406.779 90.5363 405.264 90.8495 403.372 90.8495ZM403.985 86.7841C405.801 86.7841 407.335 86.3111 408.588 85.3651C409.84 84.4063 410.793 83.0831 411.445 81.3956C412.097 79.6954 412.423 77.733 412.423 75.5086C412.423 73.3097 412.103 71.3857 411.464 69.7365C410.825 68.0746 409.879 66.7834 408.626 65.863C407.373 64.9297 405.826 64.4631 403.985 64.4631C402.068 64.4631 400.47 64.9553 399.191 65.9397C397.926 66.9113 396.973 68.2344 396.334 69.9091C395.708 71.5711 395.394 73.4375 395.394 75.5086C395.394 77.6052 395.714 79.51 396.353 81.2231C397.005 82.9233 397.964 84.2785 399.23 85.2884C400.508 86.2856 402.093 86.7841 403.985 86.7841ZM441.59 90.2358V50.9631H446.115V65.4603H446.499C446.831 64.9489 447.291 64.2969 447.879 63.5043C448.48 62.6989 449.337 61.983 450.449 61.3566C451.574 60.7174 453.095 60.3978 455.013 60.3978C457.493 60.3978 459.679 61.0178 461.571 62.2579C463.463 63.4979 464.94 65.2557 466.001 67.5313C467.062 69.8069 467.593 72.4915 467.593 75.5853C467.593 78.7046 467.062 81.4084 466.001 83.6968C464.94 85.9723 463.47 87.7366 461.59 88.9894C459.711 90.2294 457.544 90.8495 455.09 90.8495C453.198 90.8495 451.683 90.5363 450.545 89.9098C449.407 89.2706 448.531 88.5483 447.918 87.7429C447.304 86.9248 446.831 86.2472 446.499 85.7103H445.962V90.2358H441.59ZM446.039 75.5086C446.039 77.733 446.365 79.6954 447.017 81.3956C447.669 83.0831 448.621 84.4063 449.874 85.3651C451.127 86.3111 452.661 86.7841 454.476 86.7841C456.368 86.7841 457.947 86.2856 459.213 85.2884C460.491 84.2785 461.45 82.9233 462.089 81.2231C462.741 79.51 463.067 77.6052 463.067 75.5086C463.067 73.4375 462.747 71.5711 462.108 69.9091C461.482 68.2344 460.529 66.9113 459.251 65.9397C457.985 64.9553 456.394 64.4631 454.476 64.4631C452.635 64.4631 451.088 64.9297 449.835 65.863C448.583 66.7834 447.637 68.0746 446.997 69.7365C446.358 71.3857 446.039 73.3097 446.039 75.5086ZM476.375 101.281C475.608 101.281 474.924 101.217 474.323 101.09C473.722 100.974 473.307 100.859 473.077 100.744L474.227 96.7557C475.327 97.037 476.298 97.1392 477.142 97.0625C477.986 96.9858 478.734 96.6087 479.386 95.9312C480.051 95.2664 480.658 94.1861 481.208 92.6904L482.051 90.3892L471.159 60.7813H476.068L484.199 84.2529H484.506L492.637 60.7813H497.546L485.043 94.5313C484.48 96.0526 483.784 97.3118 482.953 98.309C482.122 99.3189 481.156 100.067 480.057 100.553C478.97 101.038 477.743 101.281 476.375 101.281Z" fill="white"/>
</svg>
